<svg width="379" height="379" viewBox="0 0 379 379" fill="none" xmlns="http://www.w3.org/2000/svg">
<g filter="url(#filter0_d_1_68)">
<path d="M4 185.5C4 83.0512 87.0512 0 189.5 0C291.949 0 375 83.0512 375 185.5C375 287.949 291.949 371 189.5 371C87.0512 371 4 287.949 4 185.5Z" fill="#DCDCDC"/>
<mask id="mask0_1_68" style="mask-type:alpha" maskUnits="userSpaceOnUse" x="4" y="0" width="371" height="371">
<path d="M189.5 371C291.949 371 375 287.949 375 185.5C375 83.0512 291.949 0 189.5 0C87.0512 0 4 83.0512 4 185.5C4 287.949 87.0512 371 189.5 371Z" fill="#DCDCDC"/>
</mask>
<g mask="url(#mask0_1_68)">
<path d="M211.123 204C228.376 204 242.362 190.121 242.362 173C242.362 155.879 228.376 142 211.123 142C193.871 142 179.885 155.879 179.885 173C179.885 190.121 193.871 204 211.123 204Z" fill="#CCCBCB"/>
<path d="M299.8 238C314.27 238 326 226.359 326 212C326 197.641 314.27 186 299.8 186C285.33 186 273.6 197.641 273.6 212C273.6 226.359 285.33 238 299.8 238Z" fill="#C4C4C4"/>
<path d="M304.335 149C316.3 149 326 139.374 326 127.5C326 115.626 316.3 106 304.335 106C292.369 106 282.669 115.626 282.669 127.5C282.669 139.374 292.369 149 304.335 149Z" fill="#C4C4C4"/>
<path d="M262.012 295C273.977 295 283.677 285.374 283.677 273.5C283.677 261.626 273.977 252 262.012 252C250.046 252 240.346 261.626 240.346 273.5C240.346 285.374 250.046 295 262.012 295Z" fill="#C4C4C4"/>
<path d="M150.158 197C154.332 197 157.715 193.642 157.715 189.5C157.715 185.358 154.332 182 150.158 182C145.984 182 142.6 185.358 142.6 189.5C142.6 193.642 145.984 197 150.158 197Z" fill="#C4C4C4"/>
<path d="M161.242 204C163.747 204 165.777 201.985 165.777 199.5C165.777 197.015 163.747 195 161.242 195C158.738 195 156.708 197.015 156.708 199.5C156.708 201.985 158.738 204 161.242 204Z" fill="#C4C4C4"/>
<path d="M118.415 151C141.79 151 160.738 132.196 160.738 109C160.738 85.804 141.79 67 118.415 67C95.041 67 76.0923 85.804 76.0923 109C76.0923 132.196 95.041 151 118.415 151Z" fill="#C4C4C4"/>
<path d="M62.4884 249C89.4803 249 111.362 227.286 111.362 200.5C111.362 173.714 89.4803 152 62.4884 152C35.4966 152 13.6154 173.714 13.6154 200.5C13.6154 227.286 35.4966 249 62.4884 249Z" fill="#C4C4C4"/>
<path d="M149.15 233C156.663 233 162.754 226.956 162.754 219.5C162.754 212.044 156.663 206 149.15 206C141.637 206 135.546 212.044 135.546 219.5C135.546 226.956 141.637 233 149.15 233Z" fill="#C4C4C4"/>
<path d="M140.585 309C153.385 309 163.762 298.703 163.762 286C163.762 273.297 153.385 263 140.585 263C127.784 263 117.408 273.297 117.408 286C117.408 298.703 127.784 309 140.585 309Z" fill="#C4C4C4"/>
<path d="M92.2153 275C97.2241 275 101.285 270.971 101.285 266C101.285 261.029 97.2241 257 92.2153 257C87.2066 257 83.1461 261.029 83.1461 266C83.1461 270.971 87.2066 275 92.2153 275Z" fill="#C4C4C4"/>
<path d="M88.1846 314C95.9761 314 102.292 307.732 102.292 300C102.292 292.268 95.9761 286 88.1846 286C80.3931 286 74.0769 292.268 74.0769 300C74.0769 307.732 80.3931 314 88.1846 314Z" fill="#C4C4C4"/>
<path d="M219.688 59C227.758 59 234.3 52.5081 234.3 44.5C234.3 36.4919 227.758 30 219.688 30C211.619 30 205.077 36.4919 205.077 44.5C205.077 52.5081 211.619 59 219.688 59Z" fill="#C4C4C4"/>
<path d="M224.727 101C228.344 101 231.277 98.0899 231.277 94.5C231.277 90.9101 228.344 88 224.727 88C221.109 88 218.177 90.9101 218.177 94.5C218.177 98.0899 221.109 101 224.727 101Z" fill="#C4C4C4"/>
<path d="M216.665 250C219.726 250 222.208 247.538 222.208 244.5C222.208 241.462 219.726 239 216.665 239C213.604 239 211.123 241.462 211.123 244.5C211.123 247.538 213.604 250 216.665 250Z" fill="#C4C4C4"/>
<path d="M228.254 409C254.411 409 275.615 387.957 275.615 362C275.615 336.043 254.411 315 228.254 315C202.097 315 180.892 336.043 180.892 362C180.892 387.957 202.097 409 228.254 409Z" fill="#C4C4C4"/>
<path d="M188.954 -6H-198V378H188.954V-6Z" fill="#535D74" fill-opacity="0.7"/>
</g>
</g>
<defs>
<filter id="filter0_d_1_68" x="-4" y="0" width="383" height="387" filterUnits="userSpaceOnUse" color-interpolation-filters="sRGB">
<feFlood flood-opacity="0" result="BackgroundImageFix"/>
<feColorMatrix in="SourceAlpha" type="matrix" values="0 0 0 0 0 0 0 0 0 0 0 0 0 0 0 0 0 0 127 0" result="hardAlpha"/>
<feOffset dy="4"/>
<feGaussianBlur stdDeviation="2"/>
<feComposite in2="hardAlpha" operator="out"/>
<feColorMatrix type="matrix" values="0 0 0 0 0 0 0 0 0 0 0 0 0 0 0 0 0 0 0.25 0"/>
<feBlend mode="normal" in2="BackgroundImageFix" result="effect1_dropShadow_1_68"/>
<feBlend mode="normal" in="SourceGraphic" in2="effect1_dropShadow_1_68" result="shape"/>
</filter>
</defs>
</svg>
